<svg version="1" xmlns="http://www.w3.org/2000/svg" width="346.667" height="346.667" viewBox="0 0 260.000000 260.000000"><path d="M38 .8C19.6 3.5 7.3 14.7 1.1 34.1.3 36.6 0 63.7 0 128.8c0 98.6-.1 96.2 5.5 107.3 5.2 10.5 12.9 17.1 24.5 21.3 7.5 2.6 7.7 2.6 32.9 2.4l25.4-.3.8-2.5c.7-2.4 1.1-4.6 4.4-22 2.1-10.9 3.2-16.8 4-20.3.5-2.7.7-2.7 5.8-2.2 2.8.3 6.8 1 8.7 1.5 1.9.5 5.4 1.4 7.6 2 4.9 1.2 6.4 3.2 10 13.2 2.7 7.6 3.4 10.4 5.7 20.4.8 3.3 2 7 2.6 8.2l1.2 2.2H181c23.1 0 42-.4 42-.8s2.5-1.6 5.5-2.5c9.9-3 22-14 26.2-23.6 4.2-9.8 4.3-12.7 4.3-103.1 0-93.6-.1-95.7-5.3-105.5-3.8-7.1-12-15.1-19.2-18.4C222.3.3 224.3.5 181 .2c-22.3-.1-41.4 0-42.5.2-1.9.5-2.2 1.9-3.5 13.8-.7 7.3-1.5 18.6-1.7 25.1-.5 11.5-.4 11.9 2.1 15.2 1.4 1.8 2.6 4.5 2.6 5.8 0 3.2 3.3 6.1 6.2 5.4 1.3-.3 6.8-1.7 12.2-3.2 14-3.7 14.5-2 1.3 4.6-5.8 2.8-12 6.7-13.8 8.5-2.8 2.9-3.2 4.1-3.6 10.1-.7 9.4 2 25.6 4.9 30.3 1 1.6.9 2.3-1.1 4.4-1.3 1.3-2 2.9-1.7 3.5.4.6-.4.7-2.5.1-3.7-1.1-8.8-.3-11.1 1.8-2.7 2.3-1.2 3.2 5.2 3.2 5.1 0 6.2.3 7.5 2.3.8 1.2 1.6 3.4 1.7 4.7.3 2.2-.2 2.6-3.7 3-5.1.7-15.7 5.8-15.2 7.3.2.8 4.2 1.4 10.8 1.7 10.6.5 12.9 1.1 12.9 3.5 0 1.7-2.2 2.5-7 2.5-2.1 0-4.5.3-5.4.6-1.8.7-2.2 3.4-.4 3.4 2.2 0 10.6 6.1 11.1 8 1.2 4.5-.7 7.4-6.9 10.3-9.9 4.8-10 5-4.4 10.6 5.4 5.4 8.3 13.1 7.8 20.8l-.3 4.6-8.5-.2c-8.9-.3-18.4-2.2-31.4-6.5-4.3-1.4-8.5-2.6-9.2-2.6-1.5 0-4.4 5-4.4 7.6 0 1-.7 4-1.5 6.8-1.3 4.5-4 15.4-6.5 25.6-1.5 6.4-3.4 10-5.2 10-2 0-2.5-4.2-.9-8.2.9-2.1 4.4-13.9 8.6-28.3 3.4-11.8 3.8-13 5.1-16.3 1.3-3.1 1.6-3.2 6.8-3.2 7.6 0 8-1 7.1-16.8-.7-13.4-1-14.5-6.5-23.7-5.6-9.3-6.4-11.4-11.1-27-8.7-29.2-9.5-36.2-5.4-48.5 1.9-5.7 2.5-9.5 2.5-16.6 0-10.1 1.1-13.4 6-17.7 1.6-1.5 3-3.4 3-4.2 0-.8-2-5.4-4.5-10.2C84 27.4 80 19 77.4 13.5 74.9 8 72.1 2.7 71.2 1.7 69.8.1 68 0 55.1.2c-8 .1-15.7.4-17.1.6zm132.3 75c1.9 2 1.3 3.2-1.4 3.2-2.2 0-3.3-1.6-2.5-3.5.7-2 1.9-1.9 3.9.3zm-9.1 11.8c1.4 1.3 2.1 1.4 3.2.5 1.2-1 1.7-.8 2.7 1l1.2 2.3 1.6-2.1c1.3-1.5 2.2-1.8 3.9-1.2 1.4.6 3 .4 4.1-.3 2.7-1.6 6.6 1.1 8.1 5.6 1.2 3.6.6 5.2-4.8 15.1-.6 1.1-1.3 2.8-1.6 3.7-.9 3-3 2-5.8-2.7-1.4-2.4-4.6-5.8-6.9-7.5-2.4-1.7-4.9-4.5-5.7-6.3-.7-1.7-1.8-4-2.3-4.9-1.1-2.1-1.2-4.8-.2-4.8.3 0 1.5.7 2.5 1.6z"/><path d="M103.5 65.7c-3.1.8-7.5 4.3-7.5 5.8 0 1.1 1.2 1.3 5.3.9l5.2-.4-3.3 1.5c-4.5 2.1-3.6 4 1.9 4 5.4 0 11.7 2.4 9.7 3.6-.7.5-5.9.9-11.5.9-10.5 0-13.5 1.1-8.6 3.2 1.5.6 3.5 2.1 4.4 3.1 1.5 1.9 1.7 1.9 4.3.2 2.6-1.7 2.7-1.7 4 0 1.2 1.7 1.4 1.7 3.8.1 1.7-1.1 2.8-1.3 3.3-.7.9 1.6 3.5 1.3 3.5-.4 0-2.2 2.7-1.9 4 .4.5 1.1 1 3.3 1 5 0 4.1 1.4 4.6 3.9 1.5 2.8-3.6 2.9-14.4.3-19.4-3.3-6-16.6-11.3-23.7-9.3zM81 94.8c0 3.2.9 9.8 2.1 14.8 1.1 4.9 2.4 10.5 2.8 12.4.4 1.9 1.3 5.1 1.9 7 .7 1.9 2.1 6.7 3.2 10.7 2.2 7.8 6.5 14.2 8.3 12.4.7-.7.7-1.8-.1-3.3-2.3-4.5-4.2-11.1-4.2-14.8 0-6.4-6.2-32.1-8.9-37-.5-.9-1.2-3-1.6-4.8-.3-1.8-1.3-3.2-2.1-3.2-1 0-1.4 1.5-1.4 5.8z"/></svg>